# xmcd
# 
# Track frame offsets:
#     150
#     28012
#     51902
#     77065
# 
# Disc length: 1354
# 
# Revision: 0
# Processed by: cddbd v1.5.2PL0 Copyright (c) Steve Scherf et al.
# Submitted via: fre:ac v1.0.17
# 
DISCID=2a054804
DTITLE=ゆらゆら帝国 - 美しい
DYEAR=2007
DGENRE=Psychedelic Rock
TTITLE0=美しい(Single Version)
TTITLE1=なんとなく夢を(Single Version)
TTITLE2=なさけない＆はずかしい
TTITLE3=船
EXTD=
EXTT0=
EXTT1=
EXTT2=
EXTT3=
PLAYORDER=
